<?xml version="1.0" encoding="UTF-8"?>
<!DOCTYPE svg PUBLIC "-//W3C//DTD SVG 1.1//EN" "http://www.w3.org/Graphics/SVG/1.1/DTD/svg11.dtd">
<!-- Creator: CorelDRAW X8 -->
<svg xmlns="http://www.w3.org/2000/svg" xml:space="preserve" width="8.26772in" height="196.85in" version="1.1" style="shape-rendering:geometricPrecision; text-rendering:geometricPrecision; image-rendering:optimizeQuality; fill-rule:evenodd; clip-rule:evenodd"
viewBox="0 0 8268 196850"
 xmlns:xlink="http://www.w3.org/1999/xlink">
 <defs>
  <style type="text/css">
   <![CDATA[
    .fil1 {fill:#0053E3}
    .fil0 {fill:#00A84E}
   ]]>
  </style>
 </defs>
 <g id="Layer_x0020_1">
  <metadata id="CorelCorpID_0Corel-Layer"/>
  <g id="_2909522002672">
   <path class="fil0" d="M2417 97932l0 1011 1000 0c11,0 15,3 15,14l0 1355 1059 0c16,0 107,-100 130,-127 57,-64 209,-200 251,-254 9,-12 12,-13 22,-22l200 -203c11,-11 8,-10 19,-20 16,-14 9,-5 19,-25l-918 0 0 -1496c-11,-2 -11,-5 -24,-5l-1074 0 0 -918c0,-13 -2,-13 -5,-24 -20,14 -68,65 -88,86l-304 314c-47,54 -178,170 -218,218 -19,23 -84,81 -84,96z"/>
   <path class="fil1" d="M3194 97140l1943 0c85,0 63,-29 63,219 0,743 0,1486 0,2230 20,-6 29,-22 43,-36l143 -143c12,-11 10,-12 20,-24 12,-15 27,-28 41,-42l202 -205c11,-9 10,-6 20,-19 10,-11 10,-13 21,-23 20,-21 161,-154 161,-169l0 -2390 -2065 0c-16,0 -200,194 -227,220l-49 53c-1,1 -3,4 -4,5l-242 244c-16,16 -66,65 -70,80z"/>
  </g>
 </g>
</svg>
